<?xml version="1.0" encoding="UTF-8"?>
<svg width="452px" height="378px" viewBox="0 0 452 378" version="1.1" xmlns="http://www.w3.org/2000/svg" xmlns:xlink="http://www.w3.org/1999/xlink">
    <!-- Generator: Sketch 41.2 (35397) - http://www.bohemiancoding.com/sketch -->
    <title>Slice 1</title>
    <desc>Created with Sketch.</desc>
    <defs></defs>
    <g id="Page-1" stroke="none" stroke-width="1" fill="none" fill-rule="evenodd">
        <g id="film-roll" transform="translate(209.891309, 182.869595) rotate(90.000000) translate(-209.891309, -182.869595) translate(27.891309, -46.630405)">
            <path d="M259.541401,302.026862 L268.382597,304.640909 C268.382597,304.640909 265.778362,323.777731 272.38551,326.296779 C275.812631,327.603406 252.261024,328.225643 256.747167,325.631782 C261.795074,322.713112 259.541401,302.026862 259.541401,302.026862 Z" id="Rectangle-8" fill="#D8D8D8" transform="translate(264.452193, 314.726934) rotate(-29.000000) translate(-264.452193, -314.726934) "></path>
            <circle id="Oval" stroke="#979797" stroke-width="121" cx="219" cy="145" r="27"></circle>
            <circle id="Oval-2" fill="#D8D8D8" cx="219" cy="145" r="24"></circle>
            <circle id="Oval-3" stroke="#979797" stroke-width="25" cx="218.5" cy="145.5" r="145.5"></circle>
            <path d="M207,13 L219,12 L230,13 L233,76 C233,76 223.606168,74 219,74 C214.393832,74 204,76 204,76 L207,13 Z" id="Rectangle" fill="#979797"></path>
            <path d="M295.455127,61.874437 L307.455127,60.8386299 L318.455127,61.874437 L321.455127,127.130281 C321.455127,127.130281 312.061295,125.058667 307.455127,125.058667 C302.848959,125.058667 292.455127,127.130281 292.455127,127.130281 L295.455127,61.874437 Z" id="Rectangle-Copy" fill="#979797" transform="translate(306.955127, 93.984456) rotate(60.000000) translate(-306.955127, -93.984456) "></path>
            <path d="M295.055286,164.236683 L307.055286,163.215304 L318.055286,164.236683 L321.055286,228.583561 C321.055286,228.583561 311.661453,226.540803 307.055286,226.540803 C302.449118,226.540803 292.055286,228.583561 292.055286,228.583561 L295.055286,164.236683 Z" id="Rectangle-Copy-2" fill="#979797" transform="translate(306.555286, 195.899433) rotate(120.000000) translate(-306.555286, -195.899433) "></path>
            <path d="M207,214.046875 L219,213 L230,214.046875 L233,280 C233,280 223.606168,277.90625 219,277.90625 C214.393832,277.90625 204,280 204,280 L207,214.046875 Z" id="Rectangle-Copy-3" fill="#979797" transform="translate(218.500000, 246.500000) rotate(180.000000) translate(-218.500000, -246.500000) "></path>
            <path d="M118.683157,163.229576 L130.683157,162.182701 L141.683157,163.229576 L144.683157,229.182701 C144.683157,229.182701 135.289324,227.088951 130.683157,227.088951 C126.076989,227.088951 115.683157,229.182701 115.683157,229.182701 L118.683157,163.229576 Z" id="Rectangle-Copy-4" fill="#979797" transform="translate(130.183157, 195.682701) rotate(239.000000) translate(-130.183157, -195.682701) "></path>
            <path d="M119.683157,62.2295764 L131.683157,61.1827014 L142.683157,62.2295764 L145.683157,128.182701 C145.683157,128.182701 136.289324,126.088951 131.683157,126.088951 C127.076989,126.088951 116.683157,128.182701 116.683157,128.182701 L119.683157,62.2295764 Z" id="Rectangle-Copy-5" fill="#979797" transform="translate(131.183157, 94.682701) rotate(300.000000) translate(-131.183157, -94.682701) "></path>
            <path d="M303.599433,272.846343 C303.599433,272.846343 324.738128,252.251395 324.943107,252.910257 C324.137475,253.732978 321.560391,267.099783 314.432937,281.936733 C307.305483,296.773683 298.309273,310.095606 288.506586,318.334869 C281.036859,324.613254 266.381336,341.801918 230.913798,348.469081 C195.446259,355.136244 155.352604,346.858932 131.730107,362.165629 C115.094874,372.944779 106.183093,387.142405 100.909938,399.995738 C95.6367828,412.849072 93.6301304,431.316497 93.2637144,438.80985 C92.6124267,452.128943 93.0031154,447.916157 93.0031154,447.916157 L79.0031154,447.916157 C79.0031154,447.916157 79.7030931,432.969512 80.9982366,424.825643 C81.1525239,423.855483 83.2567122,410.69444 88.553907,397.061472 C93.8511018,383.428503 101.921341,370.223416 107.90859,365.253561 C107.90859,365.253561 107.90859,365.253561 108.488412,364.592675 C109.068234,363.931789 115.155001,357.453097 122.801836,351.904733 C132.240848,345.056007 151.95574,339.337298 160.781872,338.543712 C179.400499,336.869651 229.437624,336.641229 253.079356,326.453449 C293.476172,309.045509 303.599433,272.846343 303.599433,272.846343 Z" id="Rectangle-2" fill="#D8D8D8" transform="translate(201.973111, 350.721719) rotate(5.000000) translate(-201.973111, -350.721719) "></path>
            <path d="M113,271 L132,285 C132,285 122.372356,287.033807 108,293 C93.6276444,298.966193 90.5020093,300.710803 81,308 C54.1617693,328.588187 50.349372,341.13112 44,349 C25.2268315,372.265893 18,432 18,432 L0,430 C0,430 7.79856721,366.848021 27,340 C35.53657,328.063911 51.7003162,306.717468 69,294 C86.2996838,281.282532 113,271 113,271 Z" id="Rectangle-3" fill="#D8D8D8"></path>
            <path d="M51.0662615,339.378429 C52.2564943,343.689269 53.6687697,343.763284 55.0810451,343.837298 C56.4933206,343.911312 101.686134,346.279767 105.475873,341.521839 C108.1487,338.166167 109.634092,355.497865 105.626904,352.150911 C102.704606,349.710099 97.6013349,350.18191 90.8350189,350.667624 C84.0687029,351.153339 77.8460061,351.331129 71.6582792,351.786846 C58.2513482,352.774245 49.4029192,354.072158 51.5163521,357.812024 C51.6367876,358.025143 50.0395155,354.334046 49.8050171,349.933488 C49.5705188,345.532929 50.5604595,337.546492 51.0662615,339.378429 Z" id="Rectangle-4" fill="#D8D8D8" transform="translate(78.931351, 348.465405) rotate(42.000000) translate(-78.931351, -348.465405) "></path>
            <path d="M87.1409915,310.411952 C88.3312243,314.722793 89.7434997,314.796807 91.1557751,314.870821 C92.5680506,314.944835 137.760864,317.31329 141.550603,312.555362 C144.22343,309.19969 145.708822,326.531388 141.701634,323.184435 C138.779336,320.743622 133.676065,321.215433 126.909749,321.701148 C120.143433,322.186862 112.534077,322.897319 106.34635,323.353035 C92.939419,324.340435 85.4776492,325.105681 87.5910821,328.845547 C87.7115176,329.058666 86.1142455,325.367569 85.8797471,320.967011 C85.6452488,316.566452 86.6351895,308.580015 87.1409915,310.411952 Z" id="Rectangle-4-Copy" fill="#D8D8D8" transform="translate(115.006081, 319.498928) rotate(67.000000) translate(-115.006081, -319.498928) "></path>
            <path d="M27.1236975,379.703491 C28.3461143,384.014331 30.4400992,384.093703 31.8905627,384.167717 C33.3410262,384.241731 79.7558585,386.610186 83.6480718,381.852258 C86.3931722,378.496586 87.9187295,395.828284 83.8031868,392.481331 C80.8018695,390.040518 75.5606056,390.512329 68.6113277,390.998044 C61.6620498,391.483758 53.8469361,392.194215 47.4918924,392.649931 C33.7224366,393.63733 26.0588997,394.402577 28.22948,398.142443 C28.3531721,398.355562 26.7127096,394.664465 26.4718704,390.263907 C26.2310311,385.863348 26.6042185,377.871554 27.1236975,379.703491 Z" id="Rectangle-4-Copy-2" fill="#D8D8D8" transform="translate(56.366518, 388.793220) rotate(23.000000) translate(-56.366518, -388.793220) "></path>
            <path d="M18.5835386,427.37611 C18.8958285,430.9456 70.0867141,430.900724 72.9009867,428.646868 C74.5745881,427.306536 73.4239212,434.624036 73.4239212,434.624036 L18.1957758,434.417674 C18.1957758,434.417674 18.4963828,426.379915 18.5835386,427.37611 Z" id="Rectangle-5" fill="#D8D8D8" transform="translate(46.002698, 430.957322) rotate(5.000000) translate(-46.002698, -430.957322) "></path>
            <path d="M156.366465,296.905734 L165.016046,300.050376 C165.016046,300.050376 163.527531,328.047425 166.684145,336.09177 C169.088503,342.219055 153.35325,337.067157 156.703121,334.917398 C159.737569,332.97006 156.366465,296.905734 156.366465,296.905734 Z" id="Rectangle-6" fill="#D8D8D8" transform="translate(161.584167, 317.949203) rotate(-1.000000) translate(-161.584167, -317.949203) "></path>
            <polygon id="Rectangle-7" fill="#D8D8D8" points="204 309 213 309 212 336 203 336"></polygon>
        </g>
    </g>
</svg>